<?xml version="1.0" encoding="utf-8"?>
<!-- Generator: Adobe Illustrator 16.0.4, SVG Export Plug-In . SVG Version: 6.00 Build 0)  -->
<!DOCTYPE svg PUBLIC "-//W3C//DTD SVG 1.1//EN" "http://www.w3.org/Graphics/SVG/1.1/DTD/svg11.dtd">
<svg version="1.1" id="Ebene_1" xmlns="http://www.w3.org/2000/svg" xmlns:xlink="http://www.w3.org/1999/xlink" x="0px" y="0px"
	 width="18px" height="18px" viewBox="0 0 18 18" enable-background="new 0 0 18 18" xml:space="preserve">
<path fill="#17212A" d="M17.562,15.361L11.154,8.92l6.25-6.282c0.584-0.587,0.582-1.537-0.006-2.121
	c-0.586-0.584-1.537-0.583-2.121,0.006l-6.237,6.27L2.724,0.442C2.14-0.146,1.189-0.148,0.603,0.436S0.013,1.97,0.597,2.557
	L6.924,8.92l-6.488,6.521c-0.584,0.588-0.582,1.537,0.006,2.121C0.735,17.854,1.118,18,1.5,18c0.385,0,0.771-0.146,1.063-0.441
	l6.477-6.512l6.395,6.432c0.293,0.295,0.68,0.441,1.063,0.441c0.383,0,0.767-0.146,1.058-0.438
	C18.146,16.898,18.146,15.949,17.562,15.361z"/>
</svg>
