<?xml version="1.0" encoding="utf-8"?>
<!-- Generator: Adobe Illustrator 16.0.4, SVG Export Plug-In . SVG Version: 6.00 Build 0)  -->
<!DOCTYPE svg PUBLIC "-//W3C//DTD SVG 1.1//EN" "http://www.w3.org/Graphics/SVG/1.1/DTD/svg11.dtd">
<svg version="1.1" id="Ebene_1" xmlns="http://www.w3.org/2000/svg" xmlns:xlink="http://www.w3.org/1999/xlink" x="0px" y="0px"
	 width="22px" height="18px" viewBox="0 0 22 18" enable-background="new 0 0 22 18" xml:space="preserve">
<g id="_x2A__x2A__x2A_Symbols_x2A__x2A__x2A_">
	<g id="menu">
		<g id="Group-3-Copy">
			<path id="Rectangle-10-Copy-4" fill="#17212A" d="M1.126,0h19.747C21.495,0,22,0.498,22,1.11l0,0
				c0,0.614-0.505,1.111-1.127,1.111H1.126C0.504,2.223,0,1.726,0,1.11l0,0C0,0.498,0.504,0,1.126,0z"/>
			<path id="Rectangle-10-Copy-7" fill="#17212A" d="M1.126,7.891h19.747C21.495,7.891,22,8.388,22,9l0,0
				c0,0.614-0.505,1.111-1.127,1.111H1.126C0.504,10.111,0,9.614,0,9l0,0C0,8.388,0.504,7.891,1.126,7.891z"/>
			<path id="Rectangle-10-Copy-8" fill="#17212A" d="M1.126,15.779h19.747c0.622,0,1.127,0.496,1.127,1.111l0,0
				c0,0.611-0.505,1.108-1.127,1.108H1.126C0.504,18,0,17.503,0,16.891l0,0C0,16.275,0.504,15.779,1.126,15.779z"/>
		</g>
	</g>
</g>
</svg>
